<svg width="204" height="52" viewBox="0 0 204 52" fill="none" xmlns="http://www.w3.org/2000/svg">
<path d="M20.92 51.3C17.56 51.3 15.02 50.38 13.3 48.54C11.58 46.66 10.72 44.16 10.72 41.04C10.72 39.28 10.98 37.14 11.5 34.62L15.22 17.46C15.3 17.14 15.48 16.26 15.76 14.82C16.08 13.38 16.24 11.82 16.24 10.14C16.24 9.18 16.04 8.46 15.64 7.98C15.28 7.5 14.78 7.26 14.14 7.26C12.94 7.26 11.54 7.84 9.94 9C8.34 10.12 6.66 11.86 4.9 14.22C4.34 14.98 3.72 15.36 3.04 15.36C2.48 15.36 1.98 15.1 1.54 14.58C1.14 14.02 0.94 13.4 0.94 12.72C0.94 11.48 1.5 10.08 2.62 8.52C6.7 2.92 11.48 0.119997 16.96 0.119997C19.4 0.119997 21.3 0.859997 22.66 2.34C24.06 3.82 24.76 6 24.76 8.88C24.76 10.92 24.62 12.8 24.34 14.52C24.06 16.24 23.58 18.58 22.9 21.54L20.44 32.52C20.36 32.88 20.22 33.52 20.02 34.44C19.82 35.36 19.66 36.24 19.54 37.08C19.42 37.88 19.36 38.68 19.36 39.48C19.36 40.76 19.72 41.78 20.44 42.54C21.16 43.3 22.18 43.68 23.5 43.68C25.9 43.68 28.32 42.4 30.76 39.84C33.24 37.28 35.52 33.16 37.6 27.48C39.72 21.76 41.36 14.46 42.52 5.58C42.8 3.54 43.2 2.12 43.72 1.32C44.28 0.519997 45.34 0.119997 46.9 0.119997C48.3 0.119997 49.34 0.539998 50.02 1.38C50.7 2.22 51.04 3.58 51.04 5.46C51.04 6.54 50.9 7.96 50.62 9.72C50.38 11.48 50 13.94 49.48 17.1C48.4 23.22 47.54 28.84 46.9 33.96C46.58 36.28 46.42 38 46.42 39.12C46.42 40.76 46.78 42.02 47.5 42.9C48.26 43.74 49.26 44.16 50.5 44.16C51.82 44.16 53.1 43.72 54.34 42.84C55.62 41.96 57.12 40.5 58.84 38.46C59.32 37.9 59.86 37.62 60.46 37.62C60.98 37.62 61.38 37.86 61.66 38.34C61.98 38.82 62.14 39.48 62.14 40.32C62.14 41.88 61.76 43.12 61 44.04C58.92 46.56 56.86 48.4 54.82 49.56C52.78 50.72 50.64 51.3 48.4 51.3C45.08 51.3 42.54 50.46 40.78 48.78C39.02 47.06 38.14 44.84 38.14 42.12C38.14 40.6 38.46 37.64 39.1 33.24C37.1 39.12 34.56 43.6 31.48 46.68C28.44 49.76 24.92 51.3 20.92 51.3ZM61.5189 51.3C59.9989 51.3 58.9189 50.5 58.2789 48.9C57.6789 47.3 57.3789 44.74 57.3789 41.22C57.3789 36.02 58.1189 31.08 59.5989 26.4C59.9589 25.24 60.5389 24.4 61.3389 23.88C62.1789 23.32 63.3389 23.04 64.8189 23.04C65.6189 23.04 66.1789 23.14 66.4989 23.34C66.8189 23.54 66.9789 23.92 66.9789 24.48C66.9789 25.12 66.6789 26.56 66.0789 28.8C65.6789 30.4 65.3589 31.8 65.1189 33C64.8789 34.2 64.6789 35.68 64.5189 37.44C65.8389 34 67.3189 31.2 68.9589 29.04C70.5989 26.88 72.1989 25.34 73.7589 24.42C75.3589 23.5 76.8189 23.04 78.1389 23.04C80.7389 23.04 82.0389 24.34 82.0389 26.94C82.0389 28.5 81.5989 31.32 80.7189 35.4C79.9589 38.88 79.5789 41.18 79.5789 42.3C79.5789 43.9 80.1589 44.7 81.3189 44.7C82.1189 44.7 83.0589 44.22 84.1389 43.26C85.2589 42.26 86.7389 40.66 88.5789 38.46C89.0589 37.9 89.5989 37.62 90.1989 37.62C90.7189 37.62 91.1189 37.86 91.3989 38.34C91.7189 38.82 91.8789 39.48 91.8789 40.32C91.8789 41.92 91.4989 43.16 90.7389 44.04C89.0189 46.16 87.1589 47.9 85.1589 49.26C83.1989 50.62 80.9589 51.3 78.4389 51.3C76.3989 51.3 74.8589 50.72 73.8189 49.56C72.7789 48.36 72.2589 46.64 72.2589 44.4C72.2589 43.28 72.5389 41.28 73.0989 38.4C73.6189 35.88 73.8789 34.14 73.8789 33.18C73.8789 32.54 73.6589 32.22 73.2189 32.22C72.6989 32.22 71.9589 32.9 70.9989 34.26C70.0789 35.58 69.1189 37.34 68.1189 39.54C67.1589 41.74 66.3789 44.06 65.7789 46.5C65.3389 48.38 64.8189 49.66 64.2189 50.34C63.6589 50.98 62.7589 51.3 61.5189 51.3ZM94.8845 19.08C93.2045 19.08 91.9445 18.7 91.1045 17.94C90.2645 17.14 89.8445 16.04 89.8445 14.64C89.8445 13.24 90.3845 12.08 91.4645 11.16C92.5845 10.2 93.9645 9.72 95.6045 9.72C97.0845 9.72 98.2845 10.08 99.2045 10.8C100.125 11.52 100.585 12.54 100.585 13.86C100.585 15.46 100.065 16.74 99.0245 17.7C97.9845 18.62 96.6045 19.08 94.8845 19.08ZM94.4045 51.3C91.8045 51.3 89.9045 50.38 88.7045 48.54C87.5445 46.7 86.9645 44.26 86.9645 41.22C86.9645 39.42 87.1845 37.12 87.6245 34.32C88.1045 31.48 88.7045 28.84 89.4245 26.4C89.7845 25.12 90.2645 24.24 90.8645 23.76C91.4645 23.28 92.4245 23.04 93.7445 23.04C95.7845 23.04 96.8045 23.72 96.8045 25.08C96.8045 26.08 96.4245 28.4 95.6645 32.04C94.7045 36.44 94.2245 39.42 94.2245 40.98C94.2245 42.18 94.3845 43.1 94.7045 43.74C95.0245 44.38 95.5645 44.7 96.3245 44.7C97.0445 44.7 97.9445 44.2 99.0245 43.2C100.105 42.2 101.545 40.62 103.345 38.46C103.825 37.9 104.365 37.62 104.965 37.62C105.485 37.62 105.885 37.86 106.165 38.34C106.485 38.82 106.645 39.48 106.645 40.32C106.645 41.92 106.265 43.16 105.505 44.04C101.545 48.88 97.8445 51.3 94.4045 51.3ZM113.25 51.3C109.33 51.3 106.27 50.2 104.07 48C101.91 45.76 100.83 42.82 100.83 39.18C100.83 35.94 101.47 33.1 102.75 30.66C104.03 28.22 105.69 26.34 107.73 25.02C109.77 23.7 111.91 23.04 114.15 23.04C116.35 23.04 118.05 23.7 119.25 25.02C120.49 26.3 121.11 27.96 121.11 30C121.11 31.68 120.73 33.1 119.97 34.26C119.25 35.42 118.29 36 117.09 36C116.33 36 115.71 35.82 115.23 35.46C114.79 35.1 114.57 34.6 114.57 33.96C114.57 33.68 114.61 33.36 114.69 33C114.77 32.64 114.83 32.38 114.87 32.22C115.07 31.62 115.17 31.06 115.17 30.54C115.17 30.02 115.03 29.62 114.75 29.34C114.51 29.06 114.15 28.92 113.67 28.92C112.75 28.92 111.89 29.34 111.09 30.18C110.29 30.98 109.65 32.08 109.17 33.48C108.69 34.88 108.45 36.42 108.45 38.1C108.45 42.74 110.47 45.06 114.51 45.06C116.15 45.06 117.91 44.52 119.79 43.44C121.71 42.32 123.59 40.66 125.43 38.46C125.91 37.9 126.45 37.62 127.05 37.62C127.57 37.62 127.97 37.86 128.25 38.34C128.57 38.82 128.73 39.48 128.73 40.32C128.73 41.84 128.35 43.08 127.59 44.04C125.71 46.36 123.45 48.16 120.81 49.44C118.21 50.68 115.69 51.3 113.25 51.3ZM154.48 32.58C155 32.58 155.4 32.84 155.68 33.36C155.96 33.88 156.1 34.54 156.1 35.34C156.1 37.26 155.52 38.4 154.36 38.76C151.96 39.6 149.32 40.08 146.44 40.2C145.68 43.56 144.18 46.26 141.94 48.3C139.7 50.3 137.16 51.3 134.32 51.3C131.92 51.3 129.86 50.72 128.14 49.56C126.46 48.4 125.18 46.86 124.3 44.94C123.42 43.02 122.98 40.94 122.98 38.7C122.98 35.66 123.56 32.96 124.72 30.6C125.88 28.2 127.48 26.34 129.52 25.02C131.56 23.66 133.82 22.98 136.3 22.98C139.34 22.98 141.78 24.04 143.62 26.16C145.5 28.24 146.6 30.82 146.92 33.9C148.8 33.78 151.04 33.38 153.64 32.7C153.96 32.62 154.24 32.58 154.48 32.58ZM134.8 44.94C136.08 44.94 137.18 44.42 138.1 43.38C139.06 42.34 139.7 40.84 140.02 38.88C138.78 38.04 137.82 36.94 137.14 35.58C136.5 34.22 136.18 32.78 136.18 31.26C136.18 30.62 136.24 29.98 136.36 29.34H136.06C134.46 29.34 133.12 30.12 132.04 31.68C131 33.2 130.48 35.36 130.48 38.16C130.48 40.36 130.9 42.04 131.74 43.2C132.62 44.36 133.64 44.94 134.8 44.94ZM155.21 51.3C153.69 51.3 152.61 50.5 151.97 48.9C151.37 47.3 151.07 44.74 151.07 41.22C151.07 36.02 151.81 31.08 153.29 26.4C153.65 25.24 154.23 24.4 155.03 23.88C155.87 23.32 157.03 23.04 158.51 23.04C159.31 23.04 159.87 23.14 160.19 23.34C160.51 23.54 160.67 23.92 160.67 24.48C160.67 25.12 160.37 26.56 159.77 28.8C159.37 30.4 159.05 31.8 158.81 33C158.57 34.2 158.37 35.68 158.21 37.44C159.53 34 161.01 31.2 162.65 29.04C164.29 26.88 165.89 25.34 167.45 24.42C169.05 23.5 170.51 23.04 171.83 23.04C174.43 23.04 175.73 24.34 175.73 26.94C175.73 27.46 175.55 28.72 175.19 30.72C174.87 32.32 174.71 33.32 174.71 33.72C174.71 35.12 175.21 35.82 176.21 35.82C177.33 35.82 178.77 34.94 180.53 33.18C181.05 32.66 181.59 32.4 182.15 32.4C182.67 32.4 183.07 32.64 183.35 33.12C183.67 33.56 183.83 34.16 183.83 34.92C183.83 36.4 183.43 37.56 182.63 38.4C181.51 39.56 180.19 40.56 178.67 41.4C177.19 42.2 175.61 42.6 173.93 42.6C171.81 42.6 170.19 42.06 169.07 40.98C167.99 39.9 167.45 38.44 167.45 36.6C167.45 36 167.51 35.4 167.63 34.8C167.71 34 167.75 33.46 167.75 33.18C167.75 32.54 167.53 32.22 167.09 32.22C166.49 32.22 165.69 32.9 164.69 34.26C163.73 35.58 162.77 37.34 161.81 39.54C160.85 41.74 160.07 44.06 159.47 46.5C159.03 48.38 158.51 49.66 157.91 50.34C157.35 50.98 156.45 51.3 155.21 51.3ZM182.515 51.3C180.995 51.3 179.915 50.5 179.275 48.9C178.675 47.3 178.375 44.74 178.375 41.22C178.375 36.02 179.115 31.08 180.595 26.4C180.955 25.24 181.535 24.4 182.335 23.88C183.175 23.32 184.335 23.04 185.815 23.04C186.615 23.04 187.175 23.14 187.495 23.34C187.815 23.54 187.975 23.92 187.975 24.48C187.975 25.12 187.675 26.56 187.075 28.8C186.675 30.4 186.355 31.8 186.115 33C185.875 34.2 185.675 35.68 185.515 37.44C186.835 34 188.315 31.2 189.955 29.04C191.595 26.88 193.195 25.34 194.755 24.42C196.355 23.5 197.815 23.04 199.135 23.04C200.415 23.04 201.375 23.38 202.015 24.06C202.695 24.7 203.035 25.66 203.035 26.94C203.035 27.98 202.815 29.94 202.375 32.82C201.975 35.26 201.655 37.58 201.415 39.78C201.175 41.94 201.055 44.36 201.055 47.04C201.055 48.56 200.735 49.66 200.095 50.34C199.495 50.98 198.495 51.3 197.095 51.3C195.775 51.3 194.815 50.96 194.215 50.28C193.615 49.6 193.315 48.58 193.315 47.22C193.315 45.62 193.595 42.98 194.155 39.3C194.635 36.1 194.875 34.06 194.875 33.18C194.875 32.54 194.655 32.22 194.215 32.22C193.695 32.22 192.955 32.9 191.995 34.26C191.075 35.58 190.115 37.34 189.115 39.54C188.155 41.74 187.375 44.06 186.775 46.5C186.335 48.38 185.815 49.66 185.215 50.34C184.655 50.98 183.755 51.3 182.515 51.3Z" fill="#7231C6"/>
</svg>
